<svg fill="#ffffff" viewBox="0 0 24 24" xmlns="http://www.w3.org/2000/svg"><title>Mercedes-Benz</title><path d="M12 0C5.373 0 0 5.373 0 12s5.373 12 12 12 12-5.373 12-12S18.627 0 12 0zm0 1.846c5.595 0 10.154 4.559 10.154 10.154 0 5.595-4.559 10.154-10.154 10.154S1.846 17.595 1.846 12 6.405 1.846 12 1.846zM12 3.692a8.308 8.308 0 00-7.18 4.154L12 10.462l7.18-2.616A8.308 8.308 0 0012 3.692zm-8.062 5.17A8.308 8.308 0 003.692 12a8.308 8.308 0 008.308 8.308V12.923L3.938 8.862zm16.124 0L12 12.923v7.385A8.308 8.308 0 0020.308 12a8.308 8.308 0 00-.246-3.138z"/></svg>
